<?xml version="1.0" encoding="iso-8859-1"?>
<!-- Generator: Adobe Illustrator 19.0.0, SVG Export Plug-In . SVG Version: 6.00 Build 0)  -->
<svg version="1.1" id="Capa_1" xmlns="http://www.w3.org/2000/svg" xmlns:xlink="http://www.w3.org/1999/xlink" x="0px" y="0px"
	 viewBox="0 0 512 512" style="enable-background:new 0 0 512 512;" xml:space="preserve">
<path style="fill:#F2F2F2;" d="M503.467,307.2H8.533V42.667c0-18.85,15.283-34.133,34.133-34.133h426.667
	c18.85,0,34.133,15.283,34.133,34.133V307.2z"/>
<path style="fill:#CCCCCC;" d="M388.719,478.771L388.719,478.771c-2.893-5.786-8.806-9.438-15.266-9.438H332.8l-17.067-93.867
	H196.267L179.2,469.333h-40.653c-6.468,0-12.373,3.652-15.266,9.438l0,0c-5.675,11.341,2.577,24.695,15.266,24.695h234.906
	C386.142,503.467,394.394,490.112,388.719,478.771z"/>
<path style="fill:#E0E0E0;" d="M503.467,307.2H8.533v34.133c0,18.85,15.283,34.133,34.133,34.133h426.667
	c18.85,0,34.133-15.283,34.133-34.133V307.2z"/>
<path style="fill:#E65039;" d="M162.133,196.267l42.667,25.6v8.533h-40.619c-0.009,0.06-0.017,0.128-0.026,0.188
	C163.004,240.239,154.82,256,145.101,256h-0.06c-9.719,0-17.903-15.761-19.063-25.412c-0.009-0.06-0.017-0.128-0.026-0.188H85.333
	v-8.533l42.667-25.6l-8.533-34.133h-76.8v-17.067l68.267-34.133l2.918,17.485c-1.741-14.865-2.918-25.25-2.918-26.018
	c0-28.279,15.283-51.2,34.133-51.2S179.2,74.121,179.2,102.4c0,0.768-1.178,11.153-2.918,26.018l2.918-17.485l68.267,34.133v17.067
	h-76.8L162.133,196.267z"/>
<circle style="fill:#FCB641;" cx="362.667" cy="98.133" r="55.467"/>
<path d="M469.333,0H42.667C19.14,0,0,19.14,0,42.667V307.2v34.133C0,364.86,19.14,384,42.667,384h143.377l-13.961,76.8h-33.527
	c-9.762,0-18.534,5.427-22.903,14.148c-3.994,7.996-3.575,17.306,1.118,24.909C121.463,507.46,129.613,512,138.547,512h234.897
	c8.934,0,17.075-4.54,21.777-12.143s5.12-16.913,1.118-24.909c-4.352-8.721-13.124-14.148-22.886-14.148h-33.527L325.965,384
	h143.369C492.86,384,512,364.86,512,341.333V307.2V42.667C512,19.14,492.86,0,469.333,0z M17.067,42.667
	c0-14.114,11.486-25.6,25.6-25.6h426.667c14.114,0,25.6,11.486,25.6,25.6v256H17.067V42.667z M322.577,460.8h-23.91
	c-4.71,0-8.533,3.814-8.533,8.533c0,4.719,3.823,8.533,8.533,8.533H332.8h40.653c3.251,0,6.178,1.809,7.637,4.719
	c1.92,3.84,0.375,7.083-0.367,8.303c-0.768,1.212-2.978,4.045-7.27,4.045H138.547c-4.292,0-6.511-2.833-7.262-4.053
	c-0.751-1.22-2.295-4.454-0.367-8.303c1.451-2.901,4.378-4.71,7.629-4.71H179.2h68.267c4.71,0,8.533-3.814,8.533-8.533
	c0-4.719-3.823-8.533-8.533-8.533h-58.044l13.961-76.8h105.225L322.577,460.8z M494.933,341.333c0,14.114-11.486,25.6-25.6,25.6
	h-153.6H196.267h-153.6c-14.114,0-25.6-11.486-25.6-25.6v-25.6h477.867V341.333z"/>
<path d="M238.933,349.867h34.133c4.71,0,8.533-3.814,8.533-8.533c0-4.719-3.823-8.533-8.533-8.533h-34.133
	c-4.71,0-8.533,3.814-8.533,8.533C230.4,346.052,234.223,349.867,238.933,349.867z"/>
<path d="M251.281,137.429l-63.804-31.898c0.256-2.458,0.256-2.799,0.256-3.132c0-33.493-18.739-59.733-42.667-59.733
	S102.4,68.907,102.4,102.4c0,0.333,0,0.674,0.256,3.132l-63.804,31.898c-2.893,1.451-4.719,4.403-4.719,7.637v17.067
	c0,4.719,3.823,8.533,8.533,8.533h70.135l5.385,21.53l-37.248,22.349c-2.569,1.545-4.139,4.318-4.139,7.322v8.533
	c0,4.719,3.823,8.533,8.533,8.533h33.843c3.635,11.341,12.561,25.6,25.916,25.6c13.312,0,22.229-14.268,25.856-25.6H204.8
	c4.71,0,8.533-3.814,8.533-8.533v-8.533c0-3.004-1.57-5.777-4.139-7.313l-37.248-22.349l5.385-21.538h70.135
	c4.71,0,8.533-3.814,8.533-8.533v-17.067C256,141.833,254.174,138.88,251.281,137.429z M238.933,153.6h-68.267
	c-3.917,0-7.33,2.662-8.277,6.468l-8.533,34.133c-0.905,3.644,0.666,7.45,3.891,9.387l30.464,18.278h-24.03
	c-4.318,0-7.979,3.405-8.491,7.697c-0.998,8.235-7.731,17.903-10.65,17.903c-2.859,0-9.6-9.668-10.641-18.278
	c-0.597-4.198-4.198-7.322-8.448-7.322h-24.03l30.473-18.287c3.217-1.937,4.796-5.743,3.891-9.387l-8.533-34.133
	c-0.956-3.797-4.369-6.46-8.286-6.46H51.2v-3.26l53.214-26.607l1.015,6.093c0.759,4.565,5.009,7.689,9.609,7.049
	c4.591-0.649,7.817-4.838,7.279-9.438c-2.458-21.111-2.825-24.823-2.85-25.037c0-23.125,11.725-42.667,25.6-42.667
	c13.875,0,25.6,19.541,25.609,42.274c-0.043,0.606-0.401,4.318-2.867,25.421c-0.538,4.599,2.688,8.789,7.279,9.438
	c4.617,0.666,8.849-2.483,9.609-7.049l1.015-6.093l53.222,26.615V153.6z"/>
<path d="M153.6,93.867h-17.067c-4.71,0-8.533,3.814-8.533,8.533c0,4.719,3.823,8.533,8.533,8.533H153.6
	c4.71,0,8.533-3.814,8.533-8.533C162.133,97.681,158.31,93.867,153.6,93.867z"/>
<path d="M362.667,162.133c35.294,0,64-28.706,64-64s-28.706-64-64-64s-64,28.706-64,64S327.373,162.133,362.667,162.133z
	 M362.667,51.2c25.882,0,46.933,21.06,46.933,46.933s-21.052,46.933-46.933,46.933s-46.933-21.06-46.933-46.933
	S336.785,51.2,362.667,51.2z"/>
<path d="M358.4,110.933h17.067c4.71,0,8.533-3.814,8.533-8.533c0-4.719-3.823-8.533-8.533-8.533h-8.533v-8.533
	c0-4.719-3.823-8.533-8.533-8.533s-8.533,3.814-8.533,8.533V102.4C349.867,107.119,353.69,110.933,358.4,110.933z"/>
<path d="M273.067,196.267H358.4c4.71,0,8.533-3.814,8.533-8.533c0-4.719-3.823-8.533-8.533-8.533h-85.333
	c-4.71,0-8.533,3.814-8.533,8.533C264.533,192.452,268.356,196.267,273.067,196.267z"/>
<path d="M452.267,179.2h-59.733c-4.71,0-8.533,3.814-8.533,8.533c0,4.719,3.823,8.533,8.533,8.533h59.733
	c4.71,0,8.533-3.814,8.533-8.533C460.8,183.014,456.977,179.2,452.267,179.2z"/>
<path d="M358.4,247.467h-85.333c-4.71,0-8.533,3.814-8.533,8.533c0,4.719,3.823,8.533,8.533,8.533H358.4
	c4.71,0,8.533-3.814,8.533-8.533C366.933,251.281,363.11,247.467,358.4,247.467z"/>
<path d="M452.267,247.467h-59.733c-4.71,0-8.533,3.814-8.533,8.533c0,4.719,3.823,8.533,8.533,8.533h59.733
	c4.71,0,8.533-3.814,8.533-8.533C460.8,251.281,456.977,247.467,452.267,247.467z"/>
<path d="M273.067,230.4h25.6c4.71,0,8.533-3.814,8.533-8.533c0-4.719-3.823-8.533-8.533-8.533h-25.6
	c-4.71,0-8.533,3.814-8.533,8.533C264.533,226.586,268.356,230.4,273.067,230.4z"/>
<path d="M452.267,213.333H332.8c-4.71,0-8.533,3.814-8.533,8.533c0,4.719,3.823,8.533,8.533,8.533h119.467
	c4.71,0,8.533-3.814,8.533-8.533C460.8,217.148,456.977,213.333,452.267,213.333z"/>
<g>
</g>
<g>
</g>
<g>
</g>
<g>
</g>
<g>
</g>
<g>
</g>
<g>
</g>
<g>
</g>
<g>
</g>
<g>
</g>
<g>
</g>
<g>
</g>
<g>
</g>
<g>
</g>
<g>
</g>
</svg>
